PathFileType	3	(X/Y/Z)	D:\minhoCalibration\240510\subject3_KPNP\preferred\preferred16.trc
DataRate	CameraRate	NumFrames	NumMarkers	Units	OrigDataRate	OrigDataStartFrame	OrigNumFrames
200.0	200.0	18	10	mm	200.0	255	136	
Frame#	Time	Left_Ankle_Outer1			Left_Ankle_Inner1			Left_Knee_Outer1			Left_Knee_Inner1			Left_Wrist1			Right_Wrist1			Right_Knee_Inner1			Right_Knee_Outer1			Right_Ankle_Inner1			Right_Ankle_Outer1			
		X1	Y1	Z1	X2	Y2	Z2	X3	Y3	Z3	X4	Y4	Z4	X5	Y5	Z5	X6	Y6	Z6	X7	Y7	Z7	X8	Y8	Z8	X9	Y9	Z9	X10	Y10	Z10	
255	1.265	-342.95612	128.94133	-515.00482	-395.27609	148.63972	-491.98459	-194.31841	538.7475	-471.05725	-258.78052	552.90265	-392.17065	-186.17235	922.71777	-691.25702	-414.22617	1110.457	-449.37198	-422.16159	855.30322	-78.405937	-467.35577	975.16772	-77.726707	-785.4151	736.14331	-275.42944	-836.6189	814.94897	-225.17407
256	1.27	-344.17892	128.94705	-513.74908	-395.57318	149.21115	-490.98077	-193.81949	538.5238	-471.23938	-256.80994	553.65417	-391.90689	-189.24619	921.96228	-696.53937	-408.58597	1115.1041	-450.60211	-405.98215	873.44092	-73.069603	-445.97815	992.51562	-75.418213	-788.60791	754.87415	-235.46329	-834.39526	836.14789	-184.09473
257	1.275	-344.05701	129.71356	-513.37158	-395.72989	149.63304	-490.06885	-193.44939	538.45154	-470.9025	-256.36511	554.28027	-390.48734	-192.81979	920.69922	-701.30432	-404.72662	1119.053	-451.70834	-390.49362	890.53925	-69.046097	-425.03439	1009.0586	-74.943542	-788.94922	774.62067	-195.18649	-828.6698	858.43201	-143.21371
258	1.28	-344.73862	129.25815	-512.68811	-395.73291	149.84265	-489.36472	-193.33855	538.23016	-470.0376	-256.30737	554.31219	-389.79108	-195.87575	919.53259	-705.72864	-401.72501	1122.4792	-453.11874	-375.50211	906.74646	-66.132919	-404.98132	1024.4272	-76.007195	-788.11237	796.22498	-150.49902	-821.26306	882.62921	-98.282829
259	1.285	-343.69431	130.23199	-512.42279	-395.5415	149.84846	-489.00879	-193.12196	538.06335	-468.93329	-256.35995	554.6073	-388.86224	-200.78972	917.25226	-709.15088	-396.98639	1125.6191	-455.25238	-360.96368	922.44714	-65.04673	-386.67612	1039.0197	-78.351067	-782.70514	816.77252	-105.01414	-808.5141	906.09827	-57.484463
260	1.29	-344.16879	129.25644	-511.68143	-395.13644	149.72087	-488.72131	-193.23639	537.96088	-467.48502	-256.74487	554.74487	-387.77328	-205.03842	914.99829	-712.2688	-393.84222	1128.8381	-456.89563	-347.58014	936.86633	-65.331123	-368.67331	1051.804	-82.750923	-774.34448	839.17834	-56.284817	-794.05719	930.71637	-14.227715
261	1.295	-342.897	129.83302	-511.37204	-394.58786	149.42497	-488.70364	-193.34366	537.87793	-465.90411	-256.72119	555.15735	-386.20383	-209.47615	912.33392	-714.81036	-389.68802	1130.907	-459.5506	-335.6727	949.65631	-66.672562	-352.71512	1063.6013	-88.356087	-761.2749	861.47827	-7.8883657	-775.3172	956.03955	28.914143
262	1.3	-341.78903	129.59767	-511.47778	-393.91296	148.94464	-488.81357	-193.85426	537.94189	-464.01669	-257.32315	555.41052	-384.9985	-213.87431	909.33258	-716.76727	-386.58136	1133.2219	-462.07248	-325.13055	961.21594	-69.089096	-338.72229	1073.9185	-95.011147	-744.25134	885.8028	40.301701	-752.94373	982.38428	71.861374
263	1.305	-341.47305	128.67424	-510.82236	-393.04773	148.46259	-489.0213	-194.38622	537.90192	-462.18719	-259.37451	554.66364	-384.43961	-218.0567	906.05261	-717.99762	-383.18246	1135.245	-465.10526	-316.35123	971.54742	-71.670975	-327.00919	1082.6183	-102.36632	-722.20685	910.71832	87.692131	-725.52789	1008.8466	113.22112
264	1.31	-340.54327	128.24161	-510.60098	-392.30035	147.90935	-489.24225	-194.89619	537.83276	-460.39227	-260.96741	554.99164	-382.78693	-221.67491	903.00586	-718.50623	-381.08762	1136.6896	-468.18781	-309.17157	980.99683	-74.619476	-317.89078	1089.6553	-109.91138	-692.51801	934.40552	134.62798	-693.7597	1036.2211	152.29578
265	1.315	-338.93829	128.38223	-510.77133	-391.5567	147.4057	-489.55948	-195.50517	537.9671	-458.45883	-262.65393	554.46954	-381.9097	-225.29785	899.0304	-718.33679	-378.74927	1137.6915	-471.71411	-303.58572	989.38586	-77.967514	-310.62	1094.74	-117.56644	-659.45972	961.05249	178.52937	-657.25836	1063.2365	188.55043
266	1.32	-338.93024	127.40932	-510.28729	-390.9801	146.79062	-489.89163	-196.24171	537.91608	-456.59055	-263.92261	554.42749	-381.12341	-228.2339	895.51556	-717.28619	-378.03677	1138.7793	-475.90448	-299.78537	996.54254	-81.569809	-305.97165	1098.7767	-124.04418	-622.41736	984.36493	215.71501	-616.12311	1090.2369	220.27388
267	1.325	-337.79956	127.47663	-510.5766	-390.63895	146.159	-490.19995	-196.81091	537.83936	-454.89175	-265.83228	554.28217	-379.82727	-230.53175	892.30084	-715.4635	-377.68063	1139.2698	-479.89691	-297.69452	1002.63	-85.125565	-302.97156	1101.3406	-129.79662	-578.28143	1011.0915	252.56261	-572.04053	1116.1418	248.11992
268	1.33	-337.59763	127.10412	-510.62531	-390.42404	145.70161	-490.56302	-197.63872	537.99866	-453.05377	-267.57724	554.0741	-378.76251	-232.32542	889.51385	-712.87555	-377.48145	1139.6567	-483.27148	-297.11081	1007.7157	-88.168259	-301.33478	1103.0419	-134.65901	-530.90332	1037.5844	281.54248	-525.32855	1141.011	270.42038
269	1.335	-337.46567	126.92794	-510.737	-390.43887	145.38011	-490.73862	-198.47411	537.88605	-451.37851	-268.7522	553.39801	-378.6412	-233.77187	887.32251	-709.41541	-378.46466	1140.9259	-485.77469	-297.22348	1012.6258	-90.549095	-301.82059	1104.121	-138.15686	-476.61481	1061.1913	303.86502	-476.24713	1162.7407	285.83463
270	1.34	-337.53699	126.74707	-510.94275	-390.59998	145.17365	-490.97949	-199.18747	537.79718	-449.97568	-270.03256	553.35248	-376.58005	-234.92918	885.70551	-705.30859	-380.62442	1142.4885	-487.27133	-297.26425	1017.5325	-92.679344	-304.15137	1105.2272	-141.28073	-422.36392	1080.6881	311.42007	-423.81363	1180.386	290.46631
271	1.345	-337.92953	126.54819	-511.05969	-390.97485	144.82396	-491.20419	-200.05843	537.74213	-448.56393	-271.74991	552.8678	-375.38113	-235.57053	884.91187	-700.72699	-381.8616	1145.4532	-488.23007	-296.6886	1022.0071	-95.21524	-308.09866	1109.6864	-143.72432	-396.34763	1098.0415	315.29813	-390.33936	1196.2002	285.20755
272	1.35	-338.32571	126.46101	-511.14435	-391.46375	144.70454	-491.43985	-200.64294	537.56494	-447.34171	-272.29156	552.05151	-375.02136	-236.04785	884.65094	-695.55804	-386.14047	1146.8235	-488.17322	-294.76093	1025.0837	-97.899551	-313.30801	1117.9241	-146.48459	-393.20187	1110.3654	314.5351	-374.51166	1206.7211	280.41168
